# xmcd
#
# Track frame offsets:
#	150
#	20205
#	37410
#	49050
#	64785
#	78860
#	92940
#	104532
#	121640
#	135352
#	153942
#	173102
#	190570
#	206122
#	221715
#	236565
#	253745
#	271172
#	290035
#	307392
#
# Disc length: 4380
#
# Revision: 2
# Processed by: cddbd v1.5.1PL0 Copyright (c) Steve Scherf et al.
# Submitted via: dBpowerAMP V4.0
# Normalized: r0:TDELIM( - ),TSWAP
#
DISCID=2c111a14
DTITLE=Various Artist - O Sister, Where Art Thou? (Disk One)
DYEAR=2002
DGENRE=Country
TTITLE0=Cox Family (The) - When God Dips His Pen of Love In My Heart
TTITLE1=Alison Krauss - Baby, Now That I've Found You
TTITLE2=Emmylou Harris - If I Could Only Win Your Love
TTITLE3=Maria Muldaur - My Tennessee Mountain Home
TTITLE4=Dolly Parton - Cash On The Barrelhead
TTITLE5=Mary Chapin Carpenter - Down At The Twist And Shout
TTITLE6=Patty Loveless - The Boys Are Back In Town
TTITLE7=Bonnie Rait - Love Has No Pride
TTITLE8=Reba McEntire - Cathy's Clown
TTITLE9=Beth Nielsen Chapman - Sand And Water
TTITLE10=Laura Cantrell - Mountain Fern
TTITLE11=Linda Ronstadt - Blue Bayou
TTITLE12=Alison Brown - Every Day I Write The Book
TTITLE13=Hazel Dickens And Alice Gerrard - TB Blues
TTITLE14=Mandy Barnett - Baby Don't You Know
TTITLE15=Iris Dement - When My Morning Comes Around
TTITLE16=Allison Moorer - A Soft Place To Fall
TTITLE17=Nanci Griffith - From A Distance
TTITLE18=Judds (The) - Love Can Build A Bridge
TTITLE19=Eva Cassidy - Fields Of Gold
EXTD=
EXTT0=
EXTT1=
EXTT2=
EXTT3=
EXTT4=
EXTT5=
EXTT6=
EXTT7=
EXTT8=
EXTT9=
EXTT10=
EXTT11=
EXTT12=
EXTT13=
EXTT14=
EXTT15=
EXTT16=
EXTT17=
EXTT18=
EXTT19=
PLAYORDER=
